<svg xmlns="http://www.w3.org/2000/svg" width="206" height="206" viewBox="0 0 206 206">
  <g id="Grupo_17952" data-name="Grupo 17952" transform="translate(-869 -254)">
    <path id="Trazado_33579" data-name="Trazado 33579" d="M103,0A103,103,0,1,1,0,103,103,103,0,0,1,103,0Z" transform="translate(869 254)" fill="#eaeaea"/>
    <g id="icons8-marca-de-verificacioÌn" transform="translate(903 297)">
      <path id="Trazado_33193" data-name="Trazado 33193" d="M1.707,66.3,12.12,55.885,45.377,89.146l83-83L138.79,16.558,45.377,109.971Z" transform="translate(1.942 1.942)" fill="#fff"/>
      <path id="Trazado_33194" data-name="Trazado 33194" d="M130.319,10.736l7.764,7.764-90.76,90.764L6.3,68.239l7.764-7.764L44.67,91.084l2.649,2.649,2.649-2.649,80.352-80.348m0-5.3-83,83L14.065,55.181,1,68.239l46.322,46.322L143.381,18.5,130.319,5.438Z" transform="translate(0 0)" fill="#040505"/>
    </g>
  </g>
</svg>
